<?xml version="1.0" standalone="no"?>
<!DOCTYPE svg PUBLIC "-//W3C//DTD SVG 20010904//EN"
 "http://www.w3.org/TR/2001/REC-SVG-20010904/DTD/svg10.dtd">
<svg version="1.0" xmlns="http://www.w3.org/2000/svg"
 width="300.000000pt" height="300.000000pt" viewBox="0 0 300.000000 300.000000"
 preserveAspectRatio="xMidYMid meet">
<metadata>
Created by potrace 1.14, written by Peter Selinger 2001-2017
</metadata>
<g transform="translate(0.000000,300.000000) scale(0.100000,-0.100000)"
fill="#000000" stroke="none">
<path d="M890 2417 l0 -265 -37 -22 c-21 -12 -38 -21 -38 -19 0 2 -15 -11 -34
-28 -18 -18 -38 -30 -44 -26 -5 3 -8 2 -5 -3 7 -11 -17 -35 -26 -27 -3 4 -6
-1 -6 -11 0 -9 -3 -16 -7 -14 -5 2 -23 -11 -41 -29 -18 -18 -30 -33 -26 -33 4
0 -5 -10 -20 -21 -15 -12 -25 -23 -22 -26 2 -3 -9 -18 -25 -35 -16 -17 -26
-34 -23 -39 3 -5 1 -9 -5 -9 -6 0 -22 -26 -37 -57 -14 -32 -30 -61 -36 -64 -5
-3 -9 -9 -8 -13 3 -13 -13 -71 -22 -83 -6 -7 -7 -13 -3 -13 4 0 1 -8 -6 -17
-12 -15 -12 -16 1 -8 13 8 13 6 2 -8 -8 -9 -11 -21 -8 -26 4 -5 2 -12 -4 -16
-5 -3 -10 -11 -10 -16 0 -6 4 -7 10 -4 6 3 7 -1 4 -9 -3 -9 -11 -13 -18 -9 -8
5 -8 3 1 -8 17 -21 17 -22 5 -46 -7 -12 -8 -24 -3 -27 7 -5 7 -33 0 -73 -3
-18 1 -34 9 -29 4 2 8 -4 8 -15 0 -10 -4 -19 -8 -19 -5 0 -4 -9 2 -20 6 -11 8
-25 5 -30 -3 -6 -2 -10 3 -10 5 0 9 -7 10 -15 1 -8 3 -22 4 -30 1 -8 4 -15 8
-15 4 0 7 -6 8 -12 2 -25 27 -88 34 -88 5 0 8 -7 8 -15 0 -8 5 -15 11 -15 5 0
8 -4 5 -9 -3 -5 1 -14 9 -21 8 -7 15 -19 15 -26 0 -8 5 -14 11 -14 5 0 8 -3 6
-7 -6 -11 30 -43 39 -35 4 4 5 -3 2 -15 -4 -16 -2 -20 8 -16 13 5 19 -8 15
-30 -1 -5 2 -6 7 -3 12 7 54 -38 45 -49 -5 -4 -3 -5 4 -1 14 8 55 -28 45 -40
-4 -4 -2 -4 5 0 6 3 14 2 18 -4 4 -6 10 -8 15 -5 5 3 7 -4 5 -16 -3 -16 -1
-18 9 -10 10 8 16 5 24 -14 7 -16 17 -23 26 -19 9 3 29 -4 46 -16 l30 -21 0
-145 0 -144 28 -1 c15 -1 49 -1 76 1 38 1 46 -1 40 -12 -6 -10 -5 -11 8 -1 8
7 28 11 44 10 l29 -4 -2 101 c-1 56 2 94 6 87 7 -11 9 -11 13 0 4 11 12 9 36
-8 20 -15 33 -19 37 -12 5 7 14 4 28 -8 20 -17 20 -17 13 1 -7 19 -6 19 12 3
11 -10 23 -17 28 -16 5 1 11 1 14 -1 3 -1 16 -3 29 -6 14 -2 30 -9 38 -15 9
-9 17 -8 28 1 8 7 15 8 15 4 0 -5 10 -15 23 -23 20 -13 21 -13 8 3 -13 15 -11
16 20 11 18 -3 37 -11 41 -18 6 -9 8 -8 8 3 0 13 1 13 10 0 5 -8 10 -10 10 -4
0 17 30 12 31 -5 0 -12 3 -11 9 4 5 11 9 15 9 9 1 -6 15 -11 32 -12 17 0 38
-7 47 -14 12 -9 14 -10 8 -1 -5 9 -1 13 13 13 10 0 22 -6 24 -12 4 -10 6 -10
6 0 1 12 103 16 290 12 13 0 30 5 37 11 7 6 25 12 39 14 22 2 31 -6 55 -48 16
-28 27 -54 24 -59 -6 -9 16 -10 119 -8 44 1 74 -3 85 -12 11 -9 14 -10 8 0 -5
8 2 12 23 12 35 0 34 6 -11 82 -15 27 -22 48 -16 48 7 0 6 5 -3 13 -9 6 -23
24 -31 38 -13 20 -14 26 -3 26 8 0 13 -3 12 -6 0 -3 2 -16 7 -28 7 -21 17 -28
39 -24 11 2 9 -13 -4 -26 -8 -8 -7 -13 2 -18 7 -5 10 -4 6 2 -4 6 3 19 15 29
15 13 19 14 14 4 -4 -8 -1 -7 8 4 8 10 19 15 25 11 6 -3 11 0 11 7 0 10 2 10
9 -1 6 -9 11 -10 15 -2 4 6 12 9 17 6 5 -4 9 -2 9 4 0 16 34 18 48 1 10 -13
11 -13 6 3 -4 12 -2 17 7 15 9 -2 13 5 12 20 -2 12 3 22 10 22 8 0 7 4 -3 10
-12 7 -12 10 -1 10 7 0 11 6 8 13 -19 46 -20 50 -9 43 6 -3 14 -2 17 4 4 6 1
9 -7 8 -8 -2 -12 4 -10 16 5 28 -16 36 -54 20 -19 -8 -34 -11 -34 -8 0 4 -7 1
-15 -6 -8 -7 -15 -10 -15 -6 0 4 -14 -1 -31 -10 -23 -11 -29 -12 -23 -2 6 10
5 11 -7 1 -15 -12 -18 -13 -50 -13 -11 0 -17 -4 -14 -10 3 -5 2 -10 -4 -10 -5
0 -12 6 -14 13 -3 7 -6 5 -6 -6 -1 -9 -4 -16 -8 -16 -26 4 -35 -3 -15 -12 13
-5 20 -14 16 -20 -3 -6 0 -15 7 -20 8 -5 10 -9 4 -9 -5 0 -17 5 -25 10 -8 5
-11 10 -6 10 5 0 2 8 -6 18 -18 21 -89 152 -82 152 3 0 -4 10 -15 22 -11 11
-18 25 -15 29 2 4 0 10 -5 13 -5 3 -18 23 -29 43 -196 375 -272 485 -380 549
-18 10 -32 23 -32 28 0 5 3 7 6 3 3 -3 43 7 87 23 45 16 86 26 92 23 5 -4 7
-3 3 2 -10 11 80 67 94 59 7 -4 8 -2 4 5 -4 7 2 15 16 20 13 6 19 10 15 10 -5
1 10 17 33 36 23 19 38 35 33 35 -4 0 -1 6 7 13 17 14 32 37 57 85 9 17 20 32
25 32 4 0 5 7 2 15 -4 8 -1 15 7 15 7 0 10 3 6 6 -3 3 -2 17 3 30 12 32 20 68
27 124 3 25 10 48 17 52 8 6 8 8 -1 8 -13 0 -12 18 1 39 6 9 5 12 -1 8 -7 -4
-10 11 -11 41 0 26 -7 73 -15 105 -8 31 -11 55 -7 52 5 -3 12 -1 15 5 4 6 3
10 -2 9 -30 -5 -49 25 -32 52 5 8 9 11 10 7 1 -5 3 -12 4 -18 1 -5 3 -14 4
-20 0 -5 6 -10 12 -10 8 0 8 4 0 13 -8 10 -7 14 3 14 8 0 13 -8 11 -19 -2 -10
1 -18 7 -18 6 0 3 -10 -8 -21 -19 -22 -19 -22 2 -11 19 10 21 9 20 -11 -1 -17
4 -21 19 -19 16 2 17 1 5 -7 -17 -12 -43 5 -33 23 3 6 2 8 -2 3 -11 -10 -14
-48 -3 -41 4 3 14 2 21 -3 14 -9 32 -13 69 -15 15 0 25 -5 22 -10 -5 -8 1 -10
54 -10 25 0 32 -4 27 -16 -4 -11 -2 -12 8 -4 10 9 17 8 27 -1 10 -9 11 -9 6 1
-4 6 -2 12 3 12 6 0 11 -5 11 -11 0 -5 5 -7 10 -4 6 3 10 1 10 -4 0 -6 5 -11
11 -11 5 0 8 4 5 9 -4 5 5 4 18 -2 13 -7 22 -16 19 -21 -4 -5 -1 -6 5 -2 9 5
9 13 2 26 -13 25 -13 33 3 24 8 -5 8 -2 -2 9 -10 13 -10 17 -1 17 7 0 10 7 6
15 -3 8 -9 22 -13 32 -5 12 -3 14 8 8 12 -8 12 -6 0 8 -11 14 -11 17 0 17 11
0 11 2 -1 10 -10 7 -11 10 -2 10 10 0 10 4 0 19 -7 11 -15 18 -19 15 -4 -2
-10 0 -14 5 -3 6 -12 8 -20 5 -8 -3 -28 1 -45 9 -17 9 -27 11 -24 5 4 -7 -2
-7 -17 -2 -13 4 -35 8 -49 9 -14 1 -31 5 -38 9 -8 4 -16 5 -19 2 -3 -3 -12 -1
-20 5 -10 9 -13 8 -13 -1 0 -9 -3 -10 -13 -1 -8 6 -16 8 -20 5 -3 -3 -14 -1
-25 5 -17 9 -23 6 -37 -15 l-17 -26 -43 63 c-83 123 -197 201 -370 252 -64 19
-103 21 -482 24 l-413 4 0 -264z m344 51 c-3 -4 0 -8 5 -8 6 0 11 4 11 8 0 12
274 10 282 -2 5 -8 8 -8 8 0 0 10 29 11 112 1 15 -2 38 -12 50 -23 16 -13 19
-14 10 -2 -11 14 -11 16 7 11 12 -3 21 -9 21 -14 0 -5 6 -6 13 -3 8 3 33 -7
58 -20 l44 -26 -70 -1 c-38 -1 -86 -3 -105 -5 -19 -2 -64 -6 -100 -8 -36 -3
-67 -5 -70 -7 -3 -1 -8 -1 -12 0 -5 0 -8 -2 -8 -7 0 -4 -19 -8 -42 -9 -23 -2
-45 -9 -50 -15 -5 -9 -8 -9 -8 -1 0 8 -9 8 -35 0 -19 -6 -35 -15 -35 -20 0 -5
-6 -4 -14 2 -10 8 -16 9 -21 1 -3 -6 -11 -8 -16 -5 -5 4 -9 1 -9 -4 0 -6 -3
-10 -7 -10 -5 1 -10 0 -13 -1 -5 -2 -18 -5 -55 -14 -11 -2 -32 -9 -47 -15 -27
-10 -28 -10 -28 27 0 27 3 33 10 22 6 -9 10 -10 10 -3 0 6 -5 15 -11 18 -6 4
-9 36 -8 75 l2 67 63 0 c35 0 61 -4 58 -9z m672 -122 c22 -22 30 -37 24 -41
-6 -4 -14 -4 -17 -1 -4 3 0 6 8 6 12 0 12 2 -1 10 -9 6 -20 5 -30 -3 -13 -11
-13 -10 -1 6 12 16 9 22 -12 18 -5 -1 -5 4 -1 10 3 6 0 15 -7 20 -8 5 -10 9
-5 9 4 0 23 -15 42 -34z m337 15 c3 -13 1 -18 -9 -14 -7 2 -10 11 -7 19 7 19
10 18 16 -5z m-269 -102 c1 -8 9 -28 18 -44 9 -17 19 -48 22 -70 4 -22 9 -48
12 -59 4 -13 2 -16 -6 -11 -9 5 -9 3 -2 -11 17 -34 -1 -149 -37 -228 -42 -90
-117 -168 -204 -211 -112 -54 -165 -62 -431 -64 l-236 -2 0 43 c0 24 6 50 13
57 9 11 9 13 0 7 -18 -10 -18 95 0 113 9 11 9 13 0 7 -10 -6 -13 20 -13 114 0
94 3 120 13 114 8 -5 7 -2 -2 10 -12 15 -12 19 1 32 9 9 27 17 41 17 14 1 25
6 24 12 -1 5 5 9 13 10 8 1 14 7 12 14 -1 7 2 10 8 6 6 -4 19 -3 28 1 9 4 24
8 32 10 8 2 16 8 18 14 3 7 10 4 18 -7 13 -17 14 -17 8 0 -5 13 -1 17 20 17
14 0 26 5 26 12 0 6 3 9 6 5 3 -3 17 -2 30 3 18 7 26 5 34 -8 10 -15 11 -15 6
0 -2 9 2 19 10 22 8 3 14 0 14 -7 0 -7 7 -3 15 7 10 13 15 15 15 6 0 -9 5 -8
16 6 8 10 13 14 10 8 -3 -7 1 -14 9 -18 8 -3 14 -2 14 2 -3 17 2 23 14 15 17
-11 38 -13 32 -3 -3 4 8 10 23 13 15 3 30 0 34 -6 7 -11 12 -3 10 14 -1 3 6 6
14 6 17 0 18 -9 2 -27 -7 -8 -2 -6 12 5 25 21 74 26 98 11 8 -5 18 -4 25 3 14
14 30 15 22 1 -3 -5 -1 -10 4 -10 6 0 11 4 11 9 0 5 9 11 20 14 11 3 18 2 16
-2 -3 -4 17 -7 44 -7 26 1 46 4 43 9 -2 4 -8 5 -13 2 -5 -3 -7 3 -5 13 2 10
-1 25 -6 33 -7 12 -9 12 -9 0 0 -8 -3 -12 -6 -8 -3 3 -3 11 1 17 8 14 35 -8
39 -31z m-1086 -434 c-2 -25 -1 -45 2 -45 3 0 4 -193 2 -430 -1 -272 -6 -430
-12 -430 -6 0 -10 5 -10 10 0 6 -11 22 -25 36 -14 14 -23 30 -20 35 4 5 -1 9
-10 9 -9 0 -13 5 -10 10 3 6 1 10 -4 10 -6 0 -11 7 -11 15 0 8 -4 15 -10 15
-5 0 -10 9 -10 20 0 11 -4 20 -9 20 -5 0 -11 7 -14 14 -4 11 -1 13 11 9 10 -3
8 1 -6 12 -13 9 -21 23 -18 31 3 8 1 14 -4 14 -5 0 -6 7 -3 17 4 10 2 14 -4
10 -7 -4 -10 0 -9 10 2 10 -1 28 -5 41 -6 15 -5 22 4 22 8 0 8 3 -2 9 -16 10
-21 71 -6 71 7 0 6 3 0 8 -6 4 -10 23 -9 42 1 19 2 50 3 68 0 18 5 31 10 28 4
-3 7 8 5 24 -2 19 1 30 9 30 8 0 7 4 -3 10 -11 7 -11 10 -2 10 7 0 10 5 7 10
-3 6 -1 10 5 10 6 0 9 4 6 9 -3 5 2 26 11 47 9 22 16 42 15 47 -1 4 5 7 13 7
9 0 12 6 9 15 -4 10 0 15 12 15 16 0 17 2 4 10 -14 9 -7 15 14 11 5 -1 4 5 -4
13 -10 13 -10 16 4 16 8 0 18 11 22 25 3 14 10 22 15 19 5 -3 6 -11 3 -17 -4
-7 -3 -8 2 -4 9 9 10 13 13 42 0 8 6 15 12 15 7 0 10 -17 7 -45z m426 -476
c-3 -5 0 -9 5 -9 6 0 11 4 11 8 0 4 20 8 45 8 24 1 42 -2 40 -6 -2 -4 7 -5 21
-2 16 3 30 -1 35 -9 7 -12 9 -12 9 0 0 11 4 10 16 -5 8 -10 13 -13 9 -6 -7 14
-4 15 19 6 9 -3 14 -9 12 -13 -3 -4 4 -7 14 -8 28 -2 100 -53 100 -71 0 -8 3
-12 7 -9 3 4 13 -3 22 -16 9 -12 13 -23 11 -24 -3 -1 4 -9 15 -17 11 -9 16
-16 10 -16 -5 0 1 -7 13 -16 12 -8 22 -22 22 -30 0 -8 4 -14 9 -14 5 0 15 -16
22 -35 7 -19 17 -35 22 -35 4 0 5 -4 2 -10 -3 -5 -1 -10 5 -10 7 0 9 -7 6 -16
-3 -8 -2 -12 4 -9 6 3 10 1 10 -4 0 -18 3 -26 17 -40 8 -7 12 -20 9 -28 -3 -8
-2 -12 2 -9 9 5 75 -117 75 -139 0 -8 3 -12 7 -10 4 3 16 -15 26 -38 10 -23
29 -59 42 -80 13 -22 21 -41 18 -45 -3 -3 -6 1 -6 9 0 11 -2 11 -10 -1 -7 -11
-10 -11 -10 -2 0 8 -5 10 -12 6 -17 -11 -308 -11 -308 -1 0 4 -9 3 -19 -3 -12
-6 -22 -6 -26 -1 -3 6 -13 10 -23 10 -45 -1 -134 10 -140 17 -4 4 -1 4 7 -1 8
-5 12 -4 8 1 -3 5 -24 9 -46 8 -23 0 -41 3 -41 8 0 5 -4 7 -9 3 -5 -3 -12 -1
-16 4 -3 5 -14 8 -24 6 -11 -2 -22 2 -24 9 -3 9 -15 12 -31 9 -14 -3 -26 -1
-26 5 0 8 -45 23 -66 21 -3 0 -12 8 -21 18 -8 10 -11 11 -7 3 7 -13 6 -13 -12
0 -10 8 -22 19 -25 23 -3 5 -10 7 -15 5 -15 -5 -16 52 -2 70 10 12 10 14 0 8
-10 -6 -12 42 -11 238 1 176 5 244 13 239 6 -3 5 0 -1 8 -18 18 -16 29 5 30
14 0 14 2 -3 8 -12 5 25 8 87 8 59 0 105 -4 102 -8z m730 -777 c3 -5 -1 -9 -9
-9 -8 0 -12 4 -9 9 3 4 7 8 9 8 2 0 6 -4 9 -8z m30 -74 c-11 -17 -21 -6 -21
23 0 30 1 30 13 8 7 -13 10 -27 8 -31z m16 -18 c0 -5 -4 -10 -10 -10 -5 0 -10
5 -10 10 0 6 5 10 10 10 6 0 10 -4 10 -10z"/>
<path d="M1135 2460 c-3 -5 -1 -10 4 -10 6 0 11 5 11 10 0 6 -2 10 -4 10 -3 0
-8 -4 -11 -10z"/>
<path d="M1135 2049 c-4 -6 -5 -12 -2 -15 2 -3 7 2 10 11 7 17 1 20 -8 4z"/>
<path d="M1230 1340 c0 -5 7 -7 15 -4 8 4 15 8 15 10 0 2 -7 4 -15 4 -8 0 -15
-4 -15 -10z"/>
<path d="M1550 1280 c0 -5 5 -10 11 -10 5 0 7 5 4 10 -3 6 -8 10 -11 10 -2 0
-4 -4 -4 -10z"/>
<path d="M2186 2368 c3 -5 10 -6 15 -3 13 9 11 12 -6 12 -8 0 -12 -4 -9 -9z"/>
<path d="M620 806 c0 -2 8 -10 18 -17 15 -13 16 -12 3 4 -13 16 -21 21 -21 13z"/>
<path d="M833 645 c0 -8 4 -12 9 -9 5 3 6 10 3 15 -9 13 -12 11 -12 -6z"/>
<path d="M1140 500 c-9 -6 -10 -10 -3 -10 6 0 15 5 18 10 8 12 4 12 -15 0z"/>
<path d="M1510 416 c0 -2 8 -10 18 -17 15 -13 16 -12 3 4 -13 16 -21 21 -21
13z"/>
</g>
</svg>
